<?xml version="1.0" encoding="UTF-8" standalone="no"?>
<!-- Created with Inkscape (http://www.inkscape.org/) -->

<svg
   xmlns:osb="http://www.openswatchbook.org/uri/2009/osb"
   xmlns:dc="http://purl.org/dc/elements/1.1/"
   xmlns:cc="http://creativecommons.org/ns#"
   xmlns:rdf="http://www.w3.org/1999/02/22-rdf-syntax-ns#"
   xmlns:svg="http://www.w3.org/2000/svg"
   xmlns="http://www.w3.org/2000/svg"
   xmlns:xlink="http://www.w3.org/1999/xlink"
   xmlns:sodipodi="http://sodipodi.sourceforge.net/DTD/sodipodi-0.dtd"
   xmlns:inkscape="http://www.inkscape.org/namespaces/inkscape"
   width="100"
   height="100.00009"
   viewBox="0 0 26.458333 26.458358"
   version="1.1"
   id="svg8"
   inkscape:version="0.92.5 (2060ec1f9f, 2020-04-08)"
   sodipodi:docname="sample-halo-src.svg">
  <defs
     id="defs2">
    <linearGradient
       id="linearGradient7042"
       osb:paint="solid">
      <stop
         style="stop-color:#5b0000;stop-opacity:1;"
         offset="0"
         id="stop7040" />
    </linearGradient>
    <linearGradient
       id="linearGradient10854"
       osb:paint="gradient">
      <stop
         style="stop-color:#868637;stop-opacity:1;"
         offset="0"
         id="stop10850" />
      <stop
         style="stop-color:#868637;stop-opacity:0;"
         offset="1"
         id="stop10852" />
    </linearGradient>
    <inkscape:perspective
       sodipodi:type="inkscape:persp3d"
       inkscape:vp_x="0 : 171.93452 : 1"
       inkscape:vp_y="0 : 1000 : 0"
       inkscape:vp_z="210 : 171.93452 : 1"
       inkscape:persp3d-origin="105 : 122.43452 : 1"
       id="perspective7326" />
    <linearGradient
       inkscape:collect="always"
       xlink:href="#linearGradient7042"
       id="linearGradient7044"
       x1="43.92603"
       y1="143.36753"
       x2="55.700517"
       y2="143.36753"
       gradientUnits="userSpaceOnUse" />
  </defs>
  <sodipodi:namedview
     id="base"
     pagecolor="#ffffff"
     bordercolor="#666666"
     borderopacity="1.0"
     inkscape:pageopacity="0.0"
     inkscape:pageshadow="2"
     inkscape:zoom="5.1599952"
     inkscape:cx="50"
     inkscape:cy="50.000044"
     inkscape:document-units="px"
     inkscape:current-layer="layer1"
     showgrid="false"
     inkscape:snap-others="true"
     inkscape:snap-grids="true"
     inkscape:window-width="1366"
     inkscape:window-height="715"
     inkscape:window-x="-8"
     inkscape:window-y="-8"
     inkscape:window-maximized="1"
     showguides="false"
     units="px"
     fit-margin-top="0"
     fit-margin-left="0"
     fit-margin-right="0"
     fit-margin-bottom="0" />
  <metadata
     id="metadata5">
    <rdf:RDF>
      <cc:Work
         rdf:about="">
        <dc:format>image/svg+xml</dc:format>
        <dc:type
           rdf:resource="http://purl.org/dc/dcmitype/StillImage" />
        <dc:title></dc:title>
      </cc:Work>
    </rdf:RDF>
  </metadata>
  <g
     inkscape:label="Layer 1"
     inkscape:groupmode="layer"
     id="layer1"
     transform="translate(-36.640444,-130.15303)">
    <text
       xml:space="preserve"
       style="font-style:normal;font-weight:normal;font-size:27.62216568px;line-height:1.25;font-family:sans-serif;letter-spacing:0px;word-spacing:0px;fill:#5b0000;fill-opacity:1;stroke:none;stroke-width:0.6905542;"
       x="42.442417"
       y="150.90024"
       id="text5515"><tspan
         sodipodi:role="line"
         id="tspan5513"
         x="42.442417"
         y="150.90024"
         style="stroke-width:0.6905542;fill:#5b0000;fill-opacity:1;">s</tspan></text>
    <path
       style="color:#000000;opacity:1;fill:none;fill-opacity:1;stroke:#910003;stroke-width:0.05015987;stroke-linecap:butt;stroke-miterlimit:4;stroke-dasharray:none;stroke-dashoffset:0;stroke-opacity:0.85858585;paint-order:normal"
       d="m 52.64054,65.742704 -13.514925,3.796637 12.740608,-2.694439 -13.894863,2.000105 12.983305,-1.008406 -14.037057,0.16935 13.003854,0.694884 -13.939072,-1.664303 12.801904,2.386282 -13.602587,-3.469478 12.38091,4.036851 -13.033357,-5.21529 11.748074,5.618348 -12.241123,-6.871867 10.914227,7.103714 -11.23944,-8.410865 9.893633,8.467533 -10.045446,-9.80595 8.703757,9.686471 -8.679574,-11.033253 7.364957,10.73967 -7.16519,-12.071773 5.900141,11.60911 -5.528208,-12.903742 4.334371,12.279915 -3.796637,-13.514925 2.69444,12.740608 -2.000105,-13.894863 1.008405,12.983304 -0.16935,-14.037056 -0.694883,13.003854 1.664302,-13.939073 -2.386282,12.801905 3.469478,-13.602587 -4.036851,12.380909 5.21529,-13.033357 -5.618347,11.748075 6.871866,-12.241123 -7.103713,10.914227 8.410864,-11.23944 -8.467533,9.893633 9.80595,-10.045446 -9.68647,8.703756 11.033252,-8.679573 -10.739669,7.364957 12.071772,-7.16519 -11.609109,5.900141 12.903742,-5.528208 -12.279915,4.334371 13.514924,-3.796637 -12.740607,2.694439 13.894863,-2.000104 -12.983305,1.008405 14.037057,-0.16935 -13.003855,-0.694883 13.939073,1.664302 -12.801904,-2.386282 13.602587,3.469478 -12.38091,-4.036851 13.033357,5.21529 -11.748075,-5.618348 12.241123,6.871867 -10.914226,-7.103713 11.239439,8.410864 -9.893633,-8.467533 10.045447,9.80595 -8.703757,-9.68647 8.679573,11.033252 -7.364957,-10.739669 7.16519,12.071772 -5.900141,-11.609109 5.528208,12.903742 -4.334371,-12.279915 3.796637,13.514924 -2.694439,-12.740607 2.000105,13.894863 -1.008406,-12.983305 0.169351,14.037057 0.694883,-13.003855 -1.664303,13.939073 2.386282,-12.801904 -3.469478,13.602587 4.036851,-12.38091 -5.21529,13.033357 5.618348,-11.748075 -6.871867,12.241123 7.103714,-10.914226 -8.410865,11.239439 8.467533,-9.893633 -9.805949,10.045447 9.68647,-8.703757 -11.033252,8.679573 10.739669,-7.364957 -12.071773,7.16519 11.60911,-5.900141 -12.903742,5.528208 z"
       inkscape:flatsided="false"
       inkscape:randomized="0"
       inkscape:rounded="0"
       sodipodi:arg1="0.54696605"
       sodipodi:arg2="2.0469"
       sodipodi:cx="43.845238"
       sodipodi:cy="60.386906"
       sodipodi:r1="10.297666"
       sodipodi:r2="10.297666"
       sodipodi:sides="48"
       sodipodi:type="star"
       id="path1978-1"
       transform="matrix(1.2826531,0,0,1.2826543,-6.3686194,65.926685)" />
    <flowRoot
       xml:space="preserve"
       id="flowRoot5505"
       style="font-style:normal;font-weight:normal;font-size:40px;line-height:1.25;font-family:sans-serif;letter-spacing:0px;word-spacing:0px;fill:#000000;fill-opacity:1;stroke:none"
       transform="matrix(0.26458333,0,0,0.26458333,36.640444,130.15303)"><flowRegion
         id="flowRegion5507"><rect
           id="rect5509"
           width="26.744211"
           height="40.310116"
           x="33.914761"
           y="30.232584" /></flowRegion><flowPara
         id="flowPara5511">sss</flowPara></flowRoot>  </g>
</svg>
