<?xml version="1.0" encoding="UTF-8" standalone="no"?>
<!-- Created with Inkscape (http://www.inkscape.org/) -->

<svg
   xmlns:dc="http://purl.org/dc/elements/1.1/"
   xmlns:cc="http://creativecommons.org/ns#"
   xmlns:rdf="http://www.w3.org/1999/02/22-rdf-syntax-ns#"
   xmlns:svg="http://www.w3.org/2000/svg"
   xmlns="http://www.w3.org/2000/svg"
   xmlns:sodipodi="http://sodipodi.sourceforge.net/DTD/sodipodi-0.dtd"
   xmlns:inkscape="http://www.inkscape.org/namespaces/inkscape"
   width="210mm"
   height="297mm"
   viewBox="0 0 210 297"
   version="1.1"
   id="svg7646"
   inkscape:version="0.92.5 (2060ec1f9f, 2020-04-08)"
   sodipodi:docname="sample-sec-logo-insignia.svg">
  <defs
     id="defs7640" />
  <sodipodi:namedview
     id="base"
     pagecolor="#ffffff"
     bordercolor="#666666"
     borderopacity="1.0"
     inkscape:pageopacity="0.0"
     inkscape:pageshadow="2"
     inkscape:zoom="1.8211018"
     inkscape:cx="343.86359"
     inkscape:cy="404.0839"
     inkscape:document-units="mm"
     inkscape:current-layer="layer1"
     showgrid="false"
     inkscape:window-width="1366"
     inkscape:window-height="715"
     inkscape:window-x="-8"
     inkscape:window-y="-8"
     inkscape:window-maximized="1" />
  <metadata
     id="metadata7643">
    <rdf:RDF>
      <cc:Work
         rdf:about="">
        <dc:format>image/svg+xml</dc:format>
        <dc:type
           rdf:resource="http://purl.org/dc/dcmitype/StillImage" />
        <dc:title></dc:title>
      </cc:Work>
    </rdf:RDF>
  </metadata>
  <g
     inkscape:label="Layer 1"
     inkscape:groupmode="layer"
     id="layer1">
    <text
       xml:space="preserve"
       style="font-style:normal;font-variant:normal;font-weight:normal;font-stretch:normal;font-size:35.40248871px;line-height:1.25;font-family:'Imprint MT Shadow';-inkscape-font-specification:'Imprint MT Shadow, Normal';font-variant-ligatures:normal;font-variant-caps:normal;font-variant-numeric:normal;font-feature-settings:normal;text-align:start;letter-spacing:0px;word-spacing:0px;writing-mode:lr-tb;text-anchor:start;fill:#790003;fill-opacity:1;stroke:none;stroke-width:0.88506287"
       x="72.254517"
       y="204.98032"
       id="text5515"
       transform="scale(1.0803374,0.92563676)"><tspan
         sodipodi:role="line"
         id="tspan7629"
         x="72.254517"
         y="204.98032"
         style="fill:#790003;fill-opacity:1;stroke-width:0.88506287">s</tspan></text>
    <path
       style="color:#000000;opacity:1;fill:none;fill-opacity:1;stroke:#910003;stroke-width:0.05015987;stroke-linecap:butt;stroke-miterlimit:4;stroke-dasharray:none;stroke-dashoffset:0;stroke-opacity:0.85858585;paint-order:normal"
       d="m 52.64054,65.742704 -13.514925,3.796637 12.740608,-2.694439 -13.894863,2.000105 12.983305,-1.008406 -14.037057,0.16935 13.003854,0.694884 -13.939072,-1.664303 12.801904,2.386282 -13.602587,-3.469478 12.38091,4.036851 -13.033357,-5.21529 11.748074,5.618348 -12.241123,-6.871867 10.914227,7.103714 -11.23944,-8.410865 9.893633,8.467533 -10.045446,-9.80595 8.703757,9.686471 -8.679574,-11.033253 7.364957,10.73967 -7.16519,-12.071773 5.900141,11.60911 -5.528208,-12.903742 4.334371,12.279915 -3.796637,-13.514925 2.69444,12.740608 -2.000105,-13.894863 1.008405,12.983304 -0.16935,-14.037056 -0.694883,13.003854 1.664302,-13.939073 -2.386282,12.801905 3.469478,-13.602587 -4.036851,12.380909 5.21529,-13.033357 -5.618347,11.748075 6.871866,-12.241123 -7.103713,10.914227 8.410864,-11.23944 -8.467533,9.893633 9.80595,-10.045446 -9.68647,8.703756 11.033252,-8.679573 -10.739669,7.364957 12.071772,-7.16519 -11.609109,5.900141 12.903742,-5.528208 -12.279915,4.334371 13.514924,-3.796637 -12.740607,2.694439 13.894863,-2.000104 -12.983305,1.008405 14.037057,-0.16935 -13.003855,-0.694883 13.939073,1.664302 -12.801904,-2.386282 13.602587,3.469478 -12.38091,-4.036851 13.033357,5.21529 -11.748075,-5.618348 12.241123,6.871867 -10.914226,-7.103713 11.239439,8.410864 -9.893633,-8.467533 10.045447,9.80595 -8.703757,-9.68647 8.679573,11.033252 -7.364957,-10.739669 7.16519,12.071772 -5.900141,-11.609109 5.528208,12.903742 -4.334371,-12.279915 3.796637,13.514924 -2.694439,-12.740607 2.000105,13.894863 -1.008406,-12.983305 0.169351,14.037057 0.694883,-13.003855 -1.664303,13.939073 2.386282,-12.801904 -3.469478,13.602587 4.036851,-12.38091 -5.21529,13.033357 5.618348,-11.748075 -6.871867,12.241123 7.103714,-10.914226 -8.410865,11.239439 8.467533,-9.893633 -9.805949,10.045447 9.68647,-8.703757 -11.033252,8.679573 10.739669,-7.364957 -12.071773,7.16519 11.60911,-5.900141 -12.903742,5.528208 z"
       inkscape:flatsided="false"
       inkscape:randomized="0"
       inkscape:rounded="0"
       sodipodi:arg1="0.54696605"
       sodipodi:arg2="2.0469"
       sodipodi:cx="43.845238"
       sodipodi:cy="60.386906"
       sodipodi:r1="10.297666"
       sodipodi:r2="10.297666"
       sodipodi:sides="48"
       sodipodi:type="star"
       id="path1978-1"
       transform="matrix(1.2826531,0,0,1.2826543,29.184389,105.39567)" />
    <flowRoot
       xml:space="preserve"
       id="flowRoot5505"
       style="font-style:normal;font-weight:normal;font-size:10.58333302px;line-height:1.25;font-family:sans-serif;letter-spacing:0px;word-spacing:0px;fill:#000000;fill-opacity:1;stroke:none;stroke-width:0.26458332"
       transform="translate(72.193452,169.62201)"><flowRegion
         id="flowRegion5507"
         style="stroke-width:0.26458332"><rect
           id="rect5509"
           width="7.0760727"
           height="10.665385"
           x="8.9732809"
           y="7.9990373"
           style="stroke-width:0.07000434" /></flowRegion><flowPara
         id="flowPara5511"
         style="stroke-width:0.26458332">sss</flowPara></flowRoot>    <text
       xml:space="preserve"
       style="font-style:normal;font-weight:normal;font-size:1.81347084px;line-height:1.25;font-family:sans-serif;letter-spacing:0px;word-spacing:0px;fill:#000000;fill-opacity:1;stroke:none;stroke-width:0.07556128"
       x="103.84381"
       y="175.66629"
       id="text8823"
       transform="matrix(0.87620287,0.003286,-0.03097333,1.141172,0,0)"><tspan
         sodipodi:role="line"
         id="tspan8821"
         x="103.84381"
         y="175.66629"
         style="font-size:3.28947234px;text-align:center;writing-mode:lr-tb;text-anchor:middle;stroke-width:0.07556128">REAL ESTATE | INVESTMENT | MARKETING</tspan></text>
  </g>
</svg>
